<svg xmlns="http://www.w3.org/2000/svg" xmlns:xlink="http://www.w3.org/1999/xlink" width="67" height="20" viewBox="0 0 67 20">
    <defs>
        <path id="a" d="M.027.11H24.3V20H.027V.11z"/>
    </defs>
    <g fill="none" fill-rule="evenodd">
        <path fill="#231F20" d="M44.545 11.077c-.544 0-.987-.453-.987-1.011 0-.558.443-1.012.987-1.012.545 0 .988.454.988 1.012s-.443 1.011-.988 1.011m0-3.804c-1.503 0-2.727 1.253-2.727 2.793 0 1.19.733 2.207 1.76 2.608v6.16c0 .644.433 1.166.967 1.166s.968-.522.968-1.166v-6.16a2.794 2.794 0 0 0 1.76-2.608c0-1.54-1.224-2.793-2.728-2.793M63.698 14.72a.97.97 0 0 1-.966-.972.97.97 0 0 1 .966-.972.97.97 0 0 1 .965.972.97.97 0 0 1-.965.972m0-11.966a.97.97 0 0 1 .965.972.97.97 0 0 1-.965.972.97.97 0 0 1-.966-.972.97.97 0 0 1 .966-.972m0 8.31a2.678 2.678 0 0 0-2.666 2.684c0 .53.156 1.024.42 1.442a5.468 5.468 0 0 1-2.207 1.776c-.638.286-1.346.43-2.123.43-.76 0-1.503-.165-2.228-.496-.726-.33-1.377-.826-1.956-1.487-.579-.66-1.045-1.5-1.399-2.516-.354-1.017-.531-2.213-.531-3.586 0-1.008.151-1.973.453-2.895a8.22 8.22 0 0 1 1.257-2.439 6.061 6.061 0 0 1 1.917-1.669 5.023 5.023 0 0 1 2.46-.613c1.434 0 2.604.33 3.511.991.107.078.308.23.509.388a2.678 2.678 0 0 0 2.583 3.336 2.678 2.678 0 0 0 2.666-2.684 2.678 2.678 0 0 0-2.666-2.684c-.6 0-1.152.203-1.597.54A7.104 7.104 0 0 0 59.959.43C59.12.144 58.166 0 57.096 0c-1.26 0-2.388.26-3.381.783a7.785 7.785 0 0 0-2.513 2.073 9.383 9.383 0 0 0-1.567 2.973 11.163 11.163 0 0 0-.544 3.456c0 1.547.19 2.925.57 4.133.38 1.209.92 2.235 1.619 3.078a6.955 6.955 0 0 0 2.526 1.93c.984.443 2.09.665 3.316.665 1.053 0 2.003-.174 2.85-.522a7.12 7.12 0 0 0 2.227-1.434c.267-.254.508-.528.734-.817.242.073.499.113.765.113a2.678 2.678 0 0 0 2.666-2.683 2.678 2.678 0 0 0-2.666-2.684"/>
        <g transform="translate(19.09)">
            <mask id="b" fill="#fff">
                <use xlink:href="#a"/>
            </mask>
            <path fill="#231F20" d="M21.523 3.895a1.007 1.007 0 0 1 0-2.013 1.007 1.007 0 0 1 0 2.013M2.804 1.882a1.007 1.007 0 0 1 0 2.013 1.007 1.007 0 0 1 0-2.013M24.3 2.89A2.78 2.78 0 0 0 21.523.11a2.78 2.78 0 0 0-2.777 2.779 2.78 2.78 0 0 0 1.564 2.496 536.34 536.34 0 0 1-.76 3.065 566.946 566.946 0 0 0-1.89 7.732l-4.343-14.73a1.01 1.01 0 0 0-.962-.735h-.4c-.443 0-.833.298-.962.735l-4.397 14.87L3.989 5.398a2.78 2.78 0 0 0 1.592-2.51A2.78 2.78 0 0 0 2.804.11 2.781 2.781 0 0 0 .027 2.89c0 1.243.82 2.298 1.948 2.651l3.35 13.677c.113.46.514.783.974.783h.517c.446 0 .838-.303.964-.744L12.155 3.95l4.376 15.306c.126.441.518.744.963.744h.518c.46 0 .861-.323.974-.783l3.348-13.671A2.783 2.783 0 0 0 24.3 2.889" mask="url(#b)"/>
        </g>
        <path fill="#231F20" d="M14.607 2.754a.97.97 0 0 1 .965.972.97.97 0 0 1-.965.972.97.97 0 0 1-.966-.972.97.97 0 0 1 .966-.972m0 10.022a.97.97 0 0 1 .965.972.97.97 0 0 1-.965.972.97.97 0 0 1-.966-.972.97.97 0 0 1 .966-.972m0-6.366a2.678 2.678 0 0 0 2.666-2.684 2.678 2.678 0 0 0-2.666-2.684c-.6 0-1.152.203-1.598.54A7.094 7.094 0 0 0 10.868.43C10.03.143 9.075 0 8.005 0c-1.26 0-2.388.26-3.38.782A7.782 7.782 0 0 0 2.11 2.856 9.383 9.383 0 0 0 .544 5.829 11.163 11.163 0 0 0 0 9.285c0 1.548.19 2.925.57 4.133.38 1.21.92 2.235 1.62 3.078a6.952 6.952 0 0 0 2.525 1.93c.984.443 2.09.665 3.316.665 1.053 0 2.003-.174 2.85-.522a7.123 7.123 0 0 0 2.227-1.434 7.42 7.42 0 0 0 .734-.818c.242.074.499.115.765.115a2.678 2.678 0 0 0 2.666-2.684 2.678 2.678 0 0 0-2.666-2.684 2.678 2.678 0 0 0-2.666 2.684c0 .53.156 1.025.421 1.442a5.467 5.467 0 0 1-2.207 1.775c-.639.287-1.347.43-2.124.43-.76 0-1.503-.164-2.228-.495-.725-.33-1.377-.825-1.956-1.486-.579-.66-1.045-1.5-1.399-2.517-.354-1.017-.53-2.212-.53-3.586 0-1.009.15-1.973.452-2.895a8.222 8.222 0 0 1 1.257-2.439 6.067 6.067 0 0 1 1.917-1.669 5.023 5.023 0 0 1 2.46-.613c1.434 0 2.604.33 3.511.991.107.078.308.23.509.388a2.678 2.678 0 0 0 2.583 3.335"/>
    </g>
</svg>
